<svg width="169" height="43" viewBox="0 0 169 43" fill="none" xmlns="http://www.w3.org/2000/svg">
<path d="M15.4139 12.3447L14.25 10.8676C14.25 10.8676 13.3319 11.8518 12.184 12.3447C11.0362 12.8375 9.18977 13.3099 8.61584 14.5519C8.04191 15.794 8.83288 21.4617 8.03136 23.8207C7.12702 26.4822 6.32885 26.7157 6.12013 27.0903C4.40566 30.1674 8.62445 29.5448 8.62445 29.5448L12.9201 29.5965L18.2245 29.5547H24.3376C24.3376 29.5547 25.9724 29.397 25.2941 27.7212C24.6158 26.0454 24.3819 26.5147 23.4706 24.6985C22.7402 22.5102 22.6552 22.4632 22.3529 16.2448C22.3529 16.2448 22.4926 14.2206 20.9508 13.2627C19.1116 12.4052 18.3015 12.3447 15.4139 8.67233L13.1767 5.00012L0.189689 10.0372C0.189689 10.0372 -2.87122 33.9313 15.5985 43C15.5985 43 33.8701 35.7558 30.9377 9.95821L17.929 5L15.4139 8.21329L17.0721 10.0495L18.4563 8.21329L27.8719 11.8856C27.8719 11.8856 31.6922 31.3549 15.5985 39.4281C15.5985 39.4281 2.3859 36.4051 2.76844 11.4266L12.4335 7.75425L16.3637 12.876C16.3637 12.876 16.7981 13.7218 19.1051 14.5519C19.1051 14.5519 19.9895 15.271 20.0279 16.2448C20.1454 19.2242 19.5794 25.045 23.2578 27.7212H8.27421C8.27421 27.7212 10.503 25.7557 10.5725 22.4436C10.6421 19.1315 10.5725 15.5376 10.5725 15.5376C10.5725 15.5376 10.5725 14.8476 12.4335 14.5519C14.2944 14.2563 15.4139 12.3447 15.4139 12.3447Z" fill="#253A8E"/>
<path d="M18.4255 28.8706C18.4255 30.7477 17.0254 32.2694 15.2982 32.2694C13.571 32.2694 12.1709 30.7477 12.1709 28.8706H13.3285C13.3285 30.0528 14.2104 30.9853 15.2982 30.9853C16.386 30.9853 17.2679 30.0529 17.2679 28.8706H18.4255Z" fill="#253A8E"/>
<path d="M43.4796 34V11.1377H52.5451C54.0904 11.1377 55.3553 11.4499 56.3396 12.0744C57.3346 12.6883 58.0702 13.4768 58.5465 14.44C59.0334 15.4032 59.2768 16.3981 59.2768 17.4248C59.2768 18.6843 58.9752 19.7534 58.3718 20.6319C57.7791 21.5104 56.9694 22.1031 55.9427 22.4101V21.6162C57.3822 21.9443 58.4724 22.627 59.2133 23.6643C59.9648 24.7016 60.3405 25.8818 60.3405 27.2048C60.3405 28.5596 60.0812 29.7451 59.5626 30.7612C59.0439 31.7773 58.2713 32.5711 57.2446 33.1427C56.2285 33.7142 54.9689 34 53.466 34H43.4796ZM47.3535 30.396H52.9897C53.6565 30.396 54.2545 30.2637 54.7837 29.9991C55.3129 29.7239 55.7257 29.3429 56.0221 28.856C56.329 28.3585 56.4825 27.7711 56.4825 27.0937C56.4825 26.4798 56.3502 25.9294 56.0856 25.4425C55.821 24.9556 55.4347 24.5693 54.9266 24.2835C54.4186 23.9871 53.81 23.839 53.1008 23.839H47.3535V30.396ZM47.3535 20.2667H52.4975C53.0479 20.2667 53.5401 20.1609 53.974 19.9492C54.408 19.7375 54.752 19.4253 55.006 19.0125C55.26 18.5997 55.387 18.0916 55.387 17.4883C55.387 16.6945 55.133 16.033 54.625 15.5037C54.1169 14.9745 53.4077 14.7099 52.4975 14.7099H47.3535V20.2667ZM66.3692 34V11.1377H81.1345V14.7258H70.1955V20.362H79.2293V23.9501H70.1955V30.4119H81.1345V34H66.3692ZM88.1189 34V11.1377H91.9452V30.4119H102.043V34H88.1189ZM107.59 34V11.1377H121.355V14.9639H111.416V20.6636H119.45V24.474H111.416V34H107.59ZM127.069 34V11.1377H136.515C136.738 11.1377 137.023 11.1482 137.373 11.1694C137.722 11.18 138.045 11.2118 138.341 11.2647C139.664 11.4658 140.754 11.905 141.612 12.5824C142.48 13.2598 143.12 14.1172 143.533 15.1544C143.956 16.1811 144.168 17.3243 144.168 18.5838C144.168 20.4467 143.697 22.0502 142.755 23.3944C141.813 24.7281 140.368 25.5536 138.421 25.8712L136.785 26.0141H130.895V34H127.069ZM140.199 34L135.69 24.6963L139.58 23.839L144.533 34H140.199ZM130.895 22.4418H136.357C136.568 22.4418 136.806 22.4312 137.071 22.4101C137.336 22.3889 137.579 22.3466 137.801 22.2831C138.436 22.1243 138.934 21.8438 139.294 21.4416C139.664 21.0394 139.924 20.5843 140.072 20.0762C140.23 19.5681 140.31 19.0707 140.31 18.5838C140.31 18.0969 140.23 17.5994 140.072 17.0914C139.924 16.5728 139.664 16.1123 139.294 15.7101C138.934 15.3079 138.436 15.0274 137.801 14.8687C137.579 14.8052 137.336 14.7681 137.071 14.7575C136.806 14.7364 136.568 14.7258 136.357 14.7258H130.895V22.4418ZM156.011 34V24.6328L148.232 11.1377H152.693L157.948 20.2508L163.188 11.1377H167.649L159.885 24.6328V34H156.011Z" fill="#253A8E"/>
</svg>
