<?xml version="1.0" encoding="UTF-8"?><svg id="Layer_2" xmlns="http://www.w3.org/2000/svg" xmlns:xlink="http://www.w3.org/1999/xlink" viewBox="0 0 1000 214.73"><defs><style>.cls-1{fill:none;}.cls-2{clip-path:url(#clippath);}.cls-3{fill:#e84147;}.cls-4{fill:#f18947;}.cls-5{fill:#a7cc32;}.cls-6{fill:#178e9e;}</style><clipPath id="clippath"><rect class="cls-1" width="1000" height="214.73"/></clipPath></defs><g id="Layer_1-2"><g class="cls-2"><path class="cls-6" d="m107.63,165.43c19.68,1.05,39.5,2.29,59.19,3.34,19.68,1.23,39.36,2.46,59.18,3.52,3.63.18,6.7,3.87,6.7,8.26v24.79c0,4.22-3.07,7.74-6.7,7.74h-118.37c-3.63,0-6.7-4.22-6.7-9.32v-29.53c0-5.1,3.07-9.14,6.7-8.79h0Z"/><path class="cls-6" d="m15.05,25.32c10.63-4.06,21.27-8.13,31.91-12.19,10.64-4.06,21.27-8.13,31.91-12.19,8.15-3.18,15.05,1.94,15.05,11.48v183.51c0,9.36-6.91,17.14-15.05,17.14H15.05c-8.29,0-15.05-6.54-15.05-14.49V45.63c0-7.95,6.77-17.13,15.05-20.31h0Z"/><path class="cls-4" d="m107.63,109.39c19.68,2.71,39.5,5.59,59.19,8.48,19.68,2.71,39.36,5.59,59.18,8.48,3.63.54,6.7,4.51,6.7,8.84v25.44c0,4.51-3.07,7.76-6.7,7.58-19.82-1.62-39.5-3.43-59.18-5.05-19.68-1.62-39.5-3.25-59.19-4.87-3.63-.18-6.7-4.87-6.7-10.1v-30.31c0-5.23,3.07-9.02,6.7-8.48Z"/><path class="cls-5" d="m107.63,54.76c19.68,4.41,39.5,8.83,59.19,13.06,19.68,4.41,39.36,8.83,59.18,13.06,3.63.88,6.7,5.12,6.7,9.36v24.89c0,4.41-3.07,7.42-6.7,6.71-19.82-3.18-39.5-6.36-59.18-9.53-19.68-3.18-39.5-6.36-59.19-9.71-3.63-.53-6.7-5.3-6.7-10.42v-29.66c0-5.12,3.07-8.47,6.7-7.77h0Z"/><path class="cls-3" d="m107.63.2c19.68,6,39.5,12,59.19,17.99,19.68,5.82,39.36,11.82,59.18,17.82,3.63,1.06,6.7,5.47,6.7,9.88v24.88c0,4.23-3.07,7.06-6.7,6.17-19.82-4.76-39.5-9.7-59.18-14.47-19.68-4.76-39.5-9.53-59.19-14.29-3.63-.88-6.7-5.82-6.7-11.11V7.6c0-5.12,3.07-8.47,6.7-7.41Z"/><path class="cls-3" d="m777.04,214.73c-.99-.17-1.97-.39-2.97-.51-12.47-1.44-21.33-8.06-27.16-18.97-2.5-4.68-3.96-9.72-4.72-14.96-.8-5.53-.85-11.07-.24-16.62.98-8.83,3.88-16.92,9.67-23.79,5.31-6.3,12.08-10.18,20.2-11.59,4.9-.85,9.8-.78,14.62.55,5.51,1.51,10.11,4.5,13.86,8.8.32.37.66.72,1.14,1.03.19-3.28.13-6.51.18-9.83h16.62c.31,1.1.3,83.43-.02,84.48h-15.62c-.04-.52-.12-1.01-.12-1.5-.01-2.54,0-5.09,0-7.63,0-.45-.06-.89-.09-1.34-.09-.03-.18-.06-.27-.09-.26.31-.53.61-.77.93-4.39,5.64-10.14,9.01-17.16,10.24-1.33.23-2.68.37-4.03.56-.28.04-.55.16-.83.24h-2.29,0Zm24.83-43.71c.05-4.61-.58-9.22-2.6-13.52-3.36-7.17-8.62-11.97-16.8-12.93-4.58-.54-8.89.28-12.8,2.74-5,3.15-8.08,7.77-9.76,13.36-1.31,4.35-1.61,8.81-1.3,13.34.29,4.23,1.17,8.32,3.2,12.07,3.55,6.54,8.75,10.79,16.44,11.48,3.86.35,7.54-.24,10.97-2,4.9-2.51,8.17-6.53,10.3-11.52,1.76-4.12,2.38-8.46,2.35-13.02h0Z"/><path class="cls-3" d="m861.64,95.6c-.04.46-.11.92-.11,1.39,0,22.69,0,45.39,0,68.08v1.36c.09.04.18.08.27.13.32-.3.66-.58.96-.9,4.5-4.85,8.99-9.71,13.48-14.57,6.63-7.16,13.26-14.32,19.88-21.49.48-.52.94-.85,1.72-.85,6.11.04,12.23.02,18.34.02.21,0,.41.02.88.05-10.11,11.89-20.14,23.58-30.22,35.41,11.03,16.34,22.03,32.62,33.14,49.08-.59.03-.95.07-1.31.07-5.94,0-11.89-.02-17.83.03-.98,0-1.53-.31-2.07-1.09-7.71-11.17-15.45-22.32-23.18-33.48-.4-.58-.84-1.14-1.47-1.99-.31.47-.49.82-.75,1.1-3.69,4.09-7.39,8.19-11.12,12.25-.53.58-.75,1.15-.75,1.93.02,6.53.01,13.07.01,19.6v1.57h-16.77c-.03-.58-.08-1.12-.08-1.65,0-24.9,0-49.8,0-74.7,0-13.23,0-26.47,0-39.7,0-.55-.07-1.09-.1-1.64h17.07Z"/><path class="cls-3" d="m436.1,214.73c-1.03-.17-2.06-.39-3.1-.51-12.37-1.44-21.18-7.98-27.01-18.78-2.83-5.25-4.35-10.91-5.04-16.82-.79-6.75-.59-13.46.81-20.11,1.62-7.71,4.88-14.62,10.39-20.34,4.83-5.03,10.7-8.26,17.55-9.65,2.54-.51,5.11-.8,7.7-.75,8.77.15,16.17,3.34,21.98,10,.27.31.55.62,1.05,1.16.07-.6.15-.94.15-1.28.01-2.46,0-4.92,0-7.38,0-.45.04-.91.06-1.43h16.63c.04.58.12,1.15.12,1.72,0,14.67,0,29.35,0,44.02,0,12.3,0,24.6,0,36.9,0,.58-.05,1.16-.08,1.82h-15.91c0-1.71-.02-3.42-.03-5.14,0-1.74,0-3.47,0-5.26-.67.01-.83.51-1.09.84-2.15,2.73-4.67,5.04-7.68,6.78-3.45,1.99-7.17,3.22-11.14,3.67-1.04.12-2.06.36-3.09.54h-2.29,0Zm24.8-43.54c-.04-4.25-.48-8.38-2.07-12.28-3.24-7.99-8.71-13.36-17.64-14.37-4.1-.47-8.04.26-11.67,2.26-4.24,2.33-7.18,5.89-9.24,10.2-1.78,3.73-2.53,7.72-2.76,11.81-.26,4.7.11,9.36,1.76,13.78,3.17,8.45,8.75,14.13,18.2,15,3.94.36,7.7-.37,11.17-2.27,4.32-2.36,7.35-5.95,9.43-10.36,2.07-4.38,2.74-9.05,2.81-13.78h0Z"/><path class="cls-3" d="m610.39,214.73c-1.33-.19-2.66-.42-3.99-.56-8.51-.89-15.94-4.15-22.15-10.06-6.3-6-9.93-13.47-11.64-21.88-1.83-9.04-1.54-18.04,1.15-26.9,2.15-7.07,5.72-13.31,11.19-18.35,5.25-4.84,11.41-7.85,18.53-8.8,10.65-1.42,20.22,1.02,28.43,8.07,5.69,4.89,9.32,11.15,11.5,18.27,1.41,4.61,2.05,9.34,2.11,14.16,0,.42,0,.83,0,1.36-18.55,4.23-37.02,8.44-55.58,12.68.11.43.15.76.27,1.06,2.93,7.33,8.23,11.9,15.99,13.45,5.75,1.15,11.39.75,16.77-1.76,3-1.4,5.57-3.38,7.85-5.76.28-.3.58-.58.97-.98,2.98,4.05,5.89,7.99,8.87,12.05-.8.99-1.52,1.98-2.33,2.89-4.83,5.43-10.97,8.57-18.03,9.96-2.15.43-4.36.58-6.54.87-.28.04-.55.16-.82.24h-2.55Zm18.66-53.76c-.07-.45-.07-.75-.17-1.01-.67-1.78-1.19-3.64-2.06-5.32-4.27-8.25-12.07-12.21-21.18-10.93-5.82.82-10.19,3.97-13.38,8.81-3.38,5.15-4.38,10.94-4.48,16.96,0,.19.12.37.22.68,13.68-3.06,27.29-6.11,41.05-9.19h0Z"/><path class="cls-3" d="m350.99,214.73c-1.24-.18-2.48-.42-3.73-.54-8.42-.85-15.8-4.02-22-9.8-6.09-5.68-9.71-12.77-11.63-20.78-1.46-6.12-1.69-12.32-1.08-18.57.69-7.15,2.75-13.87,6.55-19.99,5.24-8.45,12.55-14.15,22.35-16.38,3.69-.84,7.43-1.06,11.24-.75,6.29.51,12,2.52,17.14,6.12,6.21,4.34,10.41,10.25,13.18,17.23,2.02,5.09,2.98,10.41,3.18,15.88.03.92,0,1.84,0,2.91-18.47,4.21-36.93,8.42-55.54,12.67.12.45.18.81.32,1.14,2.95,7.33,8.28,11.85,16.04,13.38,5.71,1.13,11.3.72,16.65-1.76,3-1.4,5.58-3.37,7.85-5.76.29-.3.5-.68.86-1.18,3.11,4.22,6.01,8.17,8.97,12.18-.3.43-.54.81-.82,1.17-4.19,5.49-9.7,9.01-16.27,10.97-3.1.93-6.29,1.31-9.5,1.62-.41.04-.81.16-1.21.25h-2.55Zm-22.57-44.51c13.94-3.12,27.59-6.17,41.36-9.25-.11-.56-.13-1.02-.29-1.44-.66-1.74-1.2-3.55-2.08-5.17-4.46-8.26-12.24-11.92-21.1-10.64-5.91.85-10.31,4.1-13.49,9.06-2.43,3.79-3.61,8.01-4.07,12.44-.16,1.55-.21,3.11-.34,5h0Z"/><path class="cls-3" d="m964.84,214.73c-1.29-.19-2.57-.42-3.86-.55-8.42-.86-15.8-4.06-21.98-9.84-6.32-5.91-9.93-13.32-11.8-21.66-.85-3.78-1.2-7.63-1.2-11.48.02-9.68,2.07-18.86,7.46-27.06,5.24-7.99,12.41-13.37,21.83-15.47,3.7-.83,7.43-1.05,11.24-.74,7.2.6,13.59,3.12,19.15,7.69,6.27,5.15,10.18,11.84,12.43,19.55.87,2.97,1.51,6,1.59,9.12,0,.36.2.71.3,1.07v4.84c-.25,0-.51-.02-.75.03-3.34.75-6.68,1.51-10.03,2.27-13.74,3.13-27.47,6.26-41.21,9.4-1.18.27-2.35.57-3.61.88.11.38.15.62.24.85,1.89,4.87,4.93,8.79,9.59,11.29,5.91,3.18,12.2,3.58,18.65,2.16,4.96-1.1,9.03-3.76,12.5-7.42.28-.29.57-.57.93-.92,3.01,4.09,5.92,8.04,8.83,12-.28.4-.48.72-.71,1.02-5.78,7.56-13.66,11.28-22.93,12.42-1.38.17-2.74.38-4.12.57h-2.55Zm18.74-53.77c-.1-.52-.13-.94-.26-1.32-.52-1.47-.95-3-1.64-4.39-4.47-9.13-13.15-13.33-22.95-11.28-5.55,1.16-9.56,4.56-12.45,9.33-2.68,4.43-3.69,9.33-3.93,14.43-.04.75,0,1.49,0,2.45,13.82-3.09,27.46-6.15,41.23-9.23h0Z"/><path class="cls-3" d="m524.52,214.73c-.44-.09-.88-.23-1.33-.26-7.2-.53-14.15-2.07-20.72-5.12-2.2-1.02-4.3-2.2-6.25-3.66-.27-.2-.51-.43-.85-.72,2.12-4.91,4.24-9.79,6.4-14.78.35.2.65.33.91.51,5.21,3.69,11.03,5.89,17.27,7.06,3.86.73,7.74.92,11.65.45,2.41-.29,4.77-.81,6.89-2.07,3.37-2,4.46-5.27,3.84-8.83-.38-2.16-1.68-3.72-3.7-4.53-1.92-.77-3.89-1.47-5.9-1.95-3.71-.88-7.46-1.56-11.18-2.34-3.44-.72-6.87-1.52-10.15-2.8-5.84-2.29-10.22-6.18-12.43-12.15-.67-1.81-1.02-3.77-1.22-5.7-.58-5.54-.06-10.94,2.66-15.93,3.06-5.62,7.82-9.29,13.69-11.59,3.61-1.42,7.4-2.08,11.26-2.4,3.06-.26,6.11-.22,9.15.08,6.84.67,13.45,2.19,19.57,5.46.63.34,1.24.73,1.85,1.11.18.11.34.25.64.47-2.13,4.91-4.26,9.83-6.41,14.8-.29-.14-.49-.21-.66-.33-5.04-3.26-10.53-5.17-16.53-5.72-3.62-.33-7.2-.25-10.74.61-2,.49-3.84,1.32-5.42,2.69-2.4,2.08-3.22,4.72-2.72,7.78.4,2.44,1.87,4.12,4.08,5.18,2.38,1.14,4.89,1.92,7.45,2.51,4.29.99,8.61,1.83,12.89,2.85,2.3.55,4.59,1.22,6.8,2.05,5.11,1.92,9.11,5.2,11.58,10.14,1.13,2.26,1.62,4.72,1.85,7.23.41,4.48.14,8.9-1.57,13.13-2.25,5.57-6.3,9.48-11.49,12.28-3.69,1.99-7.67,3.13-11.83,3.65-1.85.23-3.71.38-5.56.58-.24.03-.46.15-.7.23h-3.06,0Z"/><path class="cls-3" d="m697.79,214.73c-1.12-.18-2.23-.42-3.35-.53-6.7-.66-12.76-2.99-18.16-6.99-7.46-5.52-12.07-12.97-14.6-21.79-1.9-6.65-2.24-13.43-1.58-20.29.65-6.77,2.58-13.13,6.1-18.96,5.64-9.33,13.76-15.31,24.47-17.58,3.82-.81,7.71-1.02,11.64-.68,4.71.4,9.19,1.5,13.38,3.68,6.43,3.34,10.98,8.43,13.96,14.98.1.22.15.47.26.85-4.23,2.88-8.46,5.76-12.78,8.7-.28-.44-.5-.78-.71-1.13-2.05-3.4-4.64-6.27-8.18-8.18-3.69-1.99-7.61-2.75-11.79-2.24-8.4,1.03-13.86,5.88-17.26,13.32-1.64,3.59-2.28,7.44-2.4,11.37-.15,4.61.21,9.15,1.82,13.53,2.02,5.5,5.37,9.95,10.67,12.62,9.15,4.6,20.41,2.36,26.59-7.42.4-.64.8-1.28,1.26-2.02,4.3,2.92,8.53,5.8,12.79,8.69-.07.27-.09.49-.17.67-4.77,10.08-12.58,16.31-23.54,18.51-1.62.32-3.28.42-4.91.64-.32.04-.63.16-.95.25h-2.55Z"/><path class="cls-3" d="m287.04,95.6c-.02.51-.07,1.01-.07,1.52,0,29.56,0,59.12,0,88.68,0,2.22.27,4.4,1.03,6.49,1.27,3.5,4.05,5.73,8.34,5.97,2.24.13,4.39-.2,6.42-1.2.11-.05.24-.05.48-.1.08.77.18,1.51.22,2.25.21,3.98.4,7.96.58,11.94.06,1.34.02,1.33-1.21,1.81-2.15.83-4.41,1.17-6.68,1.5-.41.06-.81.19-1.21.28h-2.04c-1.03-.19-2.05-.42-3.09-.55-3.28-.43-6.35-1.42-9.14-3.23-4.7-3.06-7.51-7.48-9.1-12.76-1.25-4.14-1.53-8.42-1.54-12.69-.04-29.29-.02-58.58-.03-87.87,0-.68-.03-1.35-.05-2.03h17.07Z"/></g></g></svg>