<?xml version="1.0" encoding="UTF-8"?>
<svg xmlns="http://www.w3.org/2000/svg" width="180" height="62" viewBox="0 0 180 62" fill="none">
  <g clip-path="url(#clip0_688_400)">
    <path d="M131.357 11.325L131.455 11.3616L131.849 11.5204L131.968 11.5418C132.147 11.5724 132.317 11.6029 132.487 11.6029C132.854 11.6029 133.176 11.4685 133.476 11.1936C134.438 10.2988 134.705 9.27561 134.293 8.06921C134.107 7.49807 133.594 7.15601 132.921 7.15601C132.247 7.15601 131.643 7.4828 131.23 8.07226C130.857 8.66783 130.702 9.34891 130.611 9.87729V9.89561C130.495 10.54 130.79 11.099 131.357 11.3219V11.325Z" fill="#661A0B"></path>
    <path d="M52.4762 6.66417C52.455 6.5817 52.4307 6.49619 52.4064 6.40762C52.115 5.30505 51.6233 3.46338 50.5457 3.46338C49.887 3.46338 49.6169 5.42111 49.5015 6.25796C49.4772 6.42594 49.459 6.56949 49.4408 6.67333C49.0705 8.77156 48.7791 10.5735 48.4665 12.4824C48.2176 14.0064 47.9626 15.5824 47.6651 17.3172C47.1278 20.4508 46.6361 23.5508 46.2263 26.1652L46.2203 26.214C46.0624 27.228 45.9015 28.2725 45.68 29.2926C45.4918 30.1356 45.3187 30.9969 45.1518 31.8276C44.8877 33.1531 44.6115 34.5245 44.2654 35.853C43.3639 39.2982 42.6779 41.7232 41.7248 44.9973L41.658 45.2294C41.4152 46.0632 41.1663 46.9245 40.9265 47.8041C40.8081 48.2683 39.8307 51.182 39.3299 51.6737C39.2267 51.7684 39.1235 51.8142 39.0172 51.8142C38.6712 51.8142 38.4921 51.35 38.4405 51.0782L38.3859 50.785C38.2402 50.0245 38.0914 49.2365 37.9609 48.4577C37.5299 45.9929 37.0958 43.3602 36.9106 40.6573C36.6466 36.809 36.3218 33.7915 35.912 29.9768L35.8482 29.3812C35.7481 28.4375 35.654 27.5243 35.5599 26.6294C35.1501 22.6712 34.7616 18.9328 34.0665 14.7028C33.7568 12.8153 32.4425 9.24496 29.6924 9.24496C26.9423 9.24496 25.1788 13.2459 24.2348 15.3961L24.2105 15.448C22.6472 19.0061 21.6668 21.706 20.4041 25.4413C18.9744 29.6011 17.9454 32.8783 16.6402 37.0289L16.3518 37.9421C15.8995 39.3776 15.4715 40.8527 15.0557 42.2821C14.3059 44.8568 13.5349 47.517 12.6122 49.9909V50.0031L12.597 50.0306C11.8837 52.4251 10.8729 55.0303 10.3356 55.1036C10.3204 55.1036 10.2992 55.1097 10.2779 55.1097C9.72852 55.1097 9.62835 53.9308 9.51604 52.0066C9.50086 51.7562 9.48569 51.5088 9.47051 51.2706C9.28535 48.6043 9.27624 45.4432 9.27624 44.8354C9.27624 39.9823 9.27624 38.9714 9.60103 34.3107C9.71334 32.6981 9.8044 31.0549 9.89243 29.4667C9.97742 27.906 10.0685 26.2904 10.1778 24.7053L10.2142 24.1005C10.4752 19.8369 10.7211 15.8084 9.77405 11.6883C9.32481 9.76417 8.55988 8.06909 7.49445 6.65195C6.68703 5.57688 4.99327 4.69727 3.47253 4.55678C3.39968 4.55067 3.32076 4.54762 3.2388 4.54762C2.06714 4.54762 0.185179 5.28062 0.0243024 6.38624C-0.0424766 6.84436 0.0121608 7.33609 0.934926 7.51323C3.12953 7.93471 4.41655 9.16555 4.86579 11.279C5.40305 13.811 5.41823 14.5318 5.45769 16.4589C5.4668 16.8499 5.47287 17.2927 5.48805 17.812C5.48805 19.3177 5.39091 21.3731 5.30592 23.1873C5.26039 24.1463 5.21789 25.0504 5.19058 25.82C5.09951 28.4986 4.97506 30.4227 4.77169 33.0401C4.43476 37.035 4.39833 39.9182 4.44993 43.5496C4.49243 46.4877 4.57742 48.9341 4.72009 51.2553C4.84757 53.3352 5.06309 54.5355 5.52447 56.7803C5.77338 57.9867 6.85398 61.9205 10.3993 61.9205C11.4739 61.8961 12.1083 61.2394 12.77 60.4454C14.3181 58.5915 15.6081 55.3174 16.4216 52.9015C18.601 46.4083 19.8091 42.3249 21.3997 36.6257C22.0371 34.3473 22.5471 32.7317 23.0874 31.0213C23.488 29.7569 23.8978 28.4497 24.3926 26.779C25.3791 23.4286 25.9164 21.9229 27.2004 18.4717C28.6149 14.7364 29.1248 14.1622 29.4648 14.0981C29.5498 14.0828 29.6226 14.0736 29.6864 14.0736C30.1993 14.0736 30.2752 14.5776 30.3633 15.4633V15.4969C30.4634 16.4559 30.5939 17.7722 30.685 19.0917C30.858 21.5258 31.0098 23.3003 31.1585 25.0168C31.2982 26.6233 31.4408 28.2848 31.6017 30.4899C31.6472 31.1374 31.6928 31.7635 31.7353 32.3743C31.972 35.682 32.1754 38.5407 32.5488 42.0866C32.8068 44.5391 33.171 47.0222 33.4897 49.1601C33.7477 50.8705 34.5157 53.6895 35.2988 55.2624C35.9059 56.478 36.252 56.9208 37.2263 57.3118C37.6422 57.4797 38.055 57.5653 38.4557 57.5653C38.8351 57.5653 39.1933 57.4889 39.5181 57.3331C41.8189 56.2306 43.713 52.6938 44.6358 50C44.739 49.6977 44.8452 49.3984 44.9484 49.096C45.6587 47.0466 46.3902 44.9301 46.9032 42.7891C47.1461 41.8026 47.395 40.813 47.6408 39.8571C48.2995 37.2702 48.9764 34.5947 49.4894 31.8826C49.9356 29.5125 50.3211 27.3563 50.6702 25.2855C51.6203 19.6506 52.3609 14.7333 52.8769 9.0617C52.9133 8.65244 52.7251 7.6018 52.5157 6.80161L52.4762 6.66722V6.66417Z" fill="#661A0B"></path>
    <path d="M154.639 10.5705C154.575 10.4453 154.323 10.146 154.12 10.146C153.847 10.146 153.513 10.2743 153.307 10.3995C152.469 10.8912 151.831 11.4624 151.094 12.1251C149.837 13.2674 147.937 15.2832 146.735 16.9294C146.282 17.5502 145.898 18.2175 145.439 18.8382L145.15 19.2261C145.161 18.8932 145.217 18.6572 145.244 18.3251C145.314 17.4857 145.314 16.8251 145.314 16.0345C145.314 15.4431 145.22 15.0022 145.032 14.77C144.756 14.4341 144.54 14.3211 143.942 14.0584C143.636 13.921 143.278 13.7805 142.962 13.7805C142.704 13.7805 142.458 13.8202 142.288 13.8874C141.769 14.0981 141.352 14.2676 141.298 14.9655C141.157 16.7908 140.734 20.4295 140.54 22.2956V22.3872C139.548 24.4513 138.17 27.3244 137.049 29.3202C135.076 32.8325 134.621 33.7488 132.344 36.6899C132.04 37.0829 131.588 37.291 131.282 37.1084C130.972 36.9557 130.963 36.2776 130.957 36.244C130.568 34.4665 130.593 30.6549 130.887 28.8987C131.397 25.817 131.889 23.1416 132.523 19.6965C132.802 18.1846 132.453 17.6104 131.876 16.6636C131.634 16.2574 130.966 15.9032 130.447 15.9032C130.064 15.9032 129.709 16.0681 129.612 16.4926L129.512 16.8774C129.293 17.7143 129.102 18.3923 128.853 19.2414C128.207 21.4404 127.943 22.7537 126.577 25.3498C124.894 28.5485 123.238 30.9481 120.354 35.4286C120.023 35.9425 117.926 39.2463 116.863 39.8571C116.692 39.9556 116.523 39.7961 116.408 39.6678C116.153 39.4051 116.326 38.6019 116.532 37.4443C116.56 37.2977 116.584 37.1633 116.599 37.0503C116.857 35.4622 117.231 33.6205 117.561 31.9987C117.65 31.5711 117.735 31.1527 117.813 30.7496C117.904 30.2884 118.09 29.4301 118.305 28.4345C118.785 26.211 119.437 23.163 119.516 22.3872C119.531 22.2436 119.547 22.094 119.562 21.9443C119.717 20.4722 119.893 18.8046 119.225 17.531C118.329 15.8879 117.37 15.2801 115.555 15.219C114.414 15.219 112.547 16.0375 111.339 17.5555C110.034 19.0154 108.27 21.871 106.094 26.0461C105.757 26.6936 105.396 27.448 105.013 28.2482C104.685 28.9354 104.342 29.647 103.99 30.3525L103.596 31.1344L103.705 30.2639C103.744 29.9494 103.769 29.7295 103.79 29.5615C103.847 29.0698 103.851 29.0392 103.972 28.4436C104.072 27.9672 104.169 27.4846 104.266 27.0082L104.354 26.5714C104.491 25.8903 104.631 25.2093 104.773 24.5251C105.101 22.9308 105.441 21.2816 105.732 19.6537C106.142 17.4241 106.394 15.7535 106.74 13.4415C106.868 12.5955 107.007 11.6639 107.174 10.5828C107.229 10.2224 107.265 9.84975 107.299 9.48936C107.317 9.28167 107.338 9.07704 107.359 8.87241L107.402 8.50591C107.493 7.72098 107.539 7.30562 107.636 6.39852C107.672 6.0534 107.712 5.74798 107.748 5.46394C107.909 4.18424 108.006 3.41458 107.639 1.80502C107.469 1.05064 106.588 0 105.538 0C105.317 0 105.004 0.0366502 104.767 0.216847L104.743 0.235172L104.737 0.265714C104.6 1.13005 104.527 2.06463 104.467 2.81596C104.272 5.06995 103.866 7.33616 103.471 9.52906C103.35 10.2071 103.228 10.8851 103.113 11.5632C102.809 13.3407 102.588 14.6662 102.4 15.7779C102.078 17.6899 101.865 18.9512 101.535 20.796C101.155 22.9064 100.636 24.5801 99.6101 26.9685C98.666 29.1583 98.147 30.041 97.4276 31.2657L97.3669 31.3726C97.0451 31.9101 96.7203 32.4752 96.1588 33.4617C95.1935 35.1873 93.1446 38.1621 91.4934 40.2328C90.173 41.8668 89.0286 43.0427 87.781 44.0414C87.2832 44.4354 86.7369 44.6431 86.1996 44.6431C85.5804 44.6431 85.1038 44.3193 84.7851 43.6779C83.8836 41.8729 83.7318 40.5474 83.7318 38.2629V38.1773C83.7601 37.3466 83.8785 36.5138 84.0869 35.679V35.6607L84.1112 35.566L84.2023 35.5416C86.4697 34.9521 88.6158 33.8831 90.088 32.6096C91.9699 30.9878 93.1446 28.3367 93.439 26.5623C93.6485 25.3253 93.8276 23.7402 93.3541 22.4422C92.6893 20.6341 91.1018 19.4674 89.3139 19.4674C88.5429 19.4674 87.775 19.7453 86.9645 20.3195C85.547 21.3274 84.6181 22.1184 83.7682 23.4165C82.2839 25.6735 81.3278 27.6404 80.7601 29.6042C79.9618 32.3347 79.7858 33.9534 79.5763 36.9954C79.4822 38.3881 79.4822 38.9378 79.5642 39.9396C79.6492 40.9841 79.7767 42.5662 80.3503 43.8551C80.8299 44.9179 81.3551 45.7181 82.1048 46.5305C82.979 47.4682 84.2933 48.0057 85.7079 48.0057C86.6974 48.0057 87.6384 47.7369 88.5794 47.1872C91.4478 45.5074 93.9247 42.3555 95.494 40.0098C96.3713 38.6965 97.1969 37.3771 98.1075 35.9142C98.3928 35.4561 98.6873 34.9857 98.9817 34.5184L99.2883 34.0298L99.261 34.607C99.2094 35.7157 99.091 38.0796 98.9848 39.7075C98.8087 42.3891 98.8087 44.2185 98.9787 44.8599C99.1305 45.428 99.8104 45.7639 100.8 45.7639C101.204 45.7639 101.595 45.7029 101.878 45.5929C102.53 45.3119 102.873 44.8446 103.186 43.8032C103.374 43.177 103.547 42.5906 103.714 42.0287C104.71 38.6599 105.432 36.2227 107.402 31.6017C108.2 29.7325 109.669 27.0784 111.093 24.5129C111.302 24.1372 111.506 23.7677 111.706 23.4042C111.937 22.9858 114.001 19.3025 115.1 19.3025C115.27 19.3025 115.397 19.3483 115.494 19.446C115.777 19.7331 115.728 20.4081 115.716 20.5394C115.585 21.9168 115.379 22.7903 115.176 23.6333C115.103 23.9448 115.033 24.238 114.969 24.5496C114.736 25.6735 114.435 26.9746 114.116 28.352C113.53 30.8778 112.926 33.4922 112.605 35.5477C112.277 37.6306 112.328 39.3868 112.753 40.9169C113.203 42.5143 114.283 43.2167 115.801 43.2167C118.305 43.2167 119.981 41.6264 121.416 39.6678C122.505 38.1748 123.434 36.8127 124.452 35.2759C125.198 34.1597 126.132 32.6663 126.728 31.4581C126.728 34.2133 126.277 37.9773 128.55 40.0098C129.151 40.5901 129.97 40.7734 130.887 40.7734C133.771 40.7734 135.42 38.5212 136.897 36.0394C138.718 32.9791 139.325 31.7635 139.932 30.3892L139.841 31.3054C139.78 33.1538 139.457 34.8407 139.371 36.6899C139.35 37.145 139.328 37.6154 139.371 38.0704C139.465 39.0142 140.254 39.5792 140.974 39.5792C141.854 39.5792 142.579 38.779 143.032 38.1376C143.293 37.765 143.281 36.7449 143.271 35.9233V35.8928C143.271 35.7676 143.268 35.6485 143.268 35.5416L143.29 34.9399C143.942 27.0296 144.182 25.5025 147.066 21.6847C148.677 19.552 151.012 16.1872 153.31 14.2081L154.114 13.4201L154.633 12.91L154.66 12.8826C155.073 12.4031 154.903 11.0867 154.648 10.5614L154.639 10.5705ZM84.5605 31.507C84.8731 29.03 85.9659 26.5073 87.7203 24.2166C88.2849 23.4745 88.8495 23.3645 89.1348 23.3645C89.1773 23.3645 89.232 23.3645 89.2836 23.3767C89.4869 23.3798 89.6478 23.4409 89.748 23.5508C90.4704 24.3816 90.5767 25.6277 90.0485 27.057C89.147 29.5065 86.9615 31.4062 84.7305 31.678L84.5362 31.7025L84.5605 31.507Z" fill="#661A0B"></path>
    <path d="M177.423 12.1067C177.04 11.673 176.394 11.6394 175.766 11.6394H175.647H175.535C175.04 11.6394 174.964 11.7402 174.755 12.1251C174.306 13.2551 173.835 14.2935 173.334 15.39L173.274 15.5213L173.088 15.9245C172.955 16.2177 172.821 16.5139 172.688 16.8102C172.481 17.2347 172.278 17.6684 172.078 18.0899L172.032 18.1846C171.316 19.6994 170.575 21.2693 169.677 22.7384C168.38 24.8641 167.015 26.8676 165.503 28.862C165.381 29.0239 165.242 29.2102 165.093 29.4148C164.04 30.8564 162.446 33.031 160.789 33.031C160.118 33.031 159.73 32.9424 159.332 32.4446C158.631 31.5802 158.461 30.7037 158.312 29.6469L158.306 29.6072C158.181 28.6085 158.115 27.7045 158.197 26.5317C158.279 25.365 158.294 25.2397 158.421 24.2624L158.461 23.9661L158.473 23.8684L158.564 23.8379C158.782 23.7676 159.053 23.6943 159.335 23.6149C159.827 23.4805 160.382 23.3278 160.844 23.1476C162.495 22.4818 163.949 21.4464 165.16 20.072C167.792 17.0759 168.684 13.5819 167.67 10.2345C167.145 8.51806 165.831 7.60791 163.864 7.60791C161.727 7.60791 159.651 9.36712 158.543 11.1111C157.726 12.3877 157.028 13.759 156.357 15.0846L156.208 15.3778C155.835 16.1138 155.601 16.9385 155.374 17.7356C155.304 17.986 155.231 18.2334 155.158 18.4808C154.952 19.1711 154.776 19.9132 154.63 20.6829C154.545 21.1593 154.466 21.5655 154.393 21.932C154.169 23.0896 154.02 23.8531 153.938 25.365C153.874 26.7638 153.847 27.848 153.914 28.9261L153.923 29.0483C153.987 29.9676 154.081 31.3573 154.8 32.808C155.383 33.9808 156.005 34.726 157.186 35.6576C157.814 36.1554 158.673 36.4181 159.669 36.4181C159.981 36.4181 160.303 36.3936 160.628 36.3417C162.701 36.0454 164.219 34.7627 165.554 33.4188C166.24 32.7164 166.848 31.9223 167.436 31.1526C167.773 30.7098 168.125 30.2547 168.487 29.818C170.812 26.9012 172.53 23.5233 174.048 20.5454C174.521 19.6109 174.989 18.6488 175.438 17.7173L175.52 17.5462C175.65 17.2714 175.784 16.9965 175.914 16.7247C176.236 16.0466 176.57 15.3472 176.919 14.6631C177.696 13.0871 177.623 12.403 177.42 12.1067H177.423ZM159.098 20.2156L159.138 19.898C159.781 15.2739 161.065 13.3284 162.437 11.5845C162.789 11.1416 163.178 11.0469 163.442 11.0469C163.821 11.0469 164.067 11.221 164.113 11.2577C165.072 11.9113 164.978 13.698 164.601 14.7547C163.809 16.9904 162.398 18.7099 160.403 19.8613L160.385 19.8705C160.03 20.0751 159.459 20.3439 159.065 20.5057L159.098 20.2125V20.2156Z" fill="#661A0B"></path>
    <path d="M77.8006 45.3211C77.6458 44.863 77.2785 44.2644 77.0236 44.1483C76.7595 44.0384 76.4347 43.9834 76.0704 43.9834C75.864 43.9834 75.6394 44.0017 75.3996 44.0384C74.7136 44.1361 74.1733 44.3071 73.63 44.4904C73.2232 44.6278 71.921 45.0859 71.408 45.2814C69.9996 45.8159 68.4 46.4176 66.8762 47.1353C66.4482 47.3461 65.7379 47.6942 65.2462 47.6942C64.9608 47.6942 64.7423 47.569 64.6482 47.3522C64.545 47.1384 64.6937 46.6986 64.8424 46.4664L65.322 45.7121C65.8957 44.7897 66.3207 44.2674 66.7305 43.7635C67.034 43.3909 67.3224 43.0396 67.6472 42.5479C67.972 42.0593 68.3362 41.6072 68.6883 41.1705C69.0101 40.7704 69.344 40.3581 69.6445 39.9213C69.9693 39.454 70.3517 38.9379 70.7524 38.3912C71.4475 37.4474 72.1639 36.4731 72.7072 35.6088C73.1018 34.9796 73.3234 34.72 73.5571 34.4452C73.7575 34.21 73.9669 33.9657 74.3099 33.4617C75.7608 31.3513 76.9082 29.6867 77.5639 27.3411C77.7794 26.5654 77.7794 25.3345 77.5639 24.6565C77.1571 23.331 75.6303 21.9016 73.8728 21.9016H73.721V21.8955C71.5871 21.9169 69.948 22.3994 67.9204 23.5936C66.9733 24.1648 66.0566 24.8245 64.9487 25.7346C63.9591 26.5501 63.2337 27.2495 62.6661 27.9397C62.0499 28.688 62.2016 29.0851 62.3716 29.3172C62.8998 30.1143 63.6617 30.5511 64.5177 30.5511C65.7743 30.5511 66.5423 29.7692 67.3588 28.9385C67.6532 28.6392 67.9598 28.3276 68.2876 28.0589C70.4883 26.2386 72.3187 25.3162 73.721 25.3162C74.2947 25.3162 74.4161 25.6827 74.4435 25.8415C74.5618 26.5531 73.4053 28.1596 71.9969 30.0319C71.7662 30.3403 71.5446 30.6305 71.3747 30.8687C70.8374 31.6017 70.3456 32.2003 69.8721 32.7806C69.2104 33.59 68.5244 34.4268 67.6775 35.6607C67.0219 36.6167 66.3602 37.4841 65.7227 38.3209C64.2536 40.2512 62.8664 42.0745 61.6188 44.7897C61.3335 45.4097 61.2121 45.9197 61.0512 46.8238C60.7234 48.6593 61.3456 50.159 62.6752 50.7423C63.4644 51.0844 64.2414 51.2554 65.1156 51.2798C67.5045 51.1546 69.9784 50.4216 72.4735 49.1022C73.2141 48.7143 73.9456 48.2593 74.6559 47.8195L74.7015 47.7889L74.8866 47.6759C75.3935 47.3613 75.9187 47.0345 76.4468 46.7322C76.805 46.5367 77.2118 46.3046 77.5335 46.0266C77.7096 45.8739 77.837 45.4677 77.8037 45.3364V45.3242L77.8006 45.3211Z" fill="#661A0B"></path>
    <path d="M58.0037 28.1656L57.858 28.0801C57.4301 27.8266 57.0263 27.5884 56.5285 27.5884C55.97 27.5884 55.5906 27.8755 55.4024 28.4435C54.9957 29.708 54.6466 31.0243 54.3005 32.5789C53.7147 35.175 53.229 37.9421 52.7191 41.546C52.4155 43.629 52.2607 45.6875 52.2607 47.6636C52.2607 49.3281 52.6311 50.7361 53.4324 52.0891C53.7481 52.6388 54.3218 52.9626 54.9744 52.9626C55.627 52.9626 56.1521 52.6541 56.4466 52.0982C56.6166 51.7806 56.5771 51.2308 56.5498 50.904V50.8979V50.8827C56.5498 50.281 56.5194 49.6671 56.4891 49.0776C56.4527 48.3416 56.4132 47.5841 56.4314 46.8298C56.4618 45.4615 56.6135 44.0779 56.7562 42.7402C56.7987 42.3432 56.8412 41.9461 56.8837 41.5491C57.0354 40.0342 57.3299 38.5163 57.6122 37.0472C57.8823 35.6392 58.1616 34.1824 58.3194 32.7377C58.4166 31.849 58.4712 30.9449 58.5198 30.0684C58.538 29.7446 58.5562 29.4362 58.5774 29.1246C58.5683 28.7154 58.2648 28.3825 58.0068 28.1687L58.0037 28.1656Z" fill="#661A0B"></path>
    <path d="M59.6763 18.7802C59.3909 18.5877 58.9781 18.4595 58.6503 18.4595C57.9218 18.4595 57.2085 18.9207 56.6439 19.7544C56.055 20.6157 56.0368 21.5656 56.5953 22.433C56.908 22.9094 57.3117 23.1629 57.7579 23.1629C58.022 23.1629 58.2951 23.0835 58.5683 22.9308C58.6806 22.8667 58.7838 22.7873 58.8962 22.7048C59.0054 22.6254 59.1177 22.5399 59.2361 22.4696C60.4564 21.6664 60.7599 20.6799 60.1801 19.3666C60.1043 19.1925 59.8311 18.8871 59.6763 18.7832V18.7802Z" fill="#661A0B"></path>
    <path d="M179.533 29.5584L179.502 29.4668C179.269 28.7613 178.528 28.2695 177.696 28.2695C176.816 28.2695 176.066 28.7032 175.401 29.5981C174.922 30.325 174.788 30.7862 174.721 31.1771C174.564 32.075 174.849 33.2265 175.69 33.596C176.172 33.7946 176.67 33.8984 177.126 33.8984C177.73 33.8984 178.255 33.6968 178.686 33.2998C179.803 32.2583 180.052 31.168 179.533 29.5584Z" fill="#6473F8"></path>
  </g>
  <defs>
    <clipPath id="clip0_688_400">
      <rect width="179.791" height="61.9145" fill="white"></rect>
    </clipPath>
  </defs>
</svg>
